<?xml version="1.0" encoding="UTF-8" standalone="no"?><svg width="20" height="22" viewBox="0 0 20 22" fill="none" xmlns="http://www.w3.org/2000/svg">
<path d="M16.9697 8.55943C16.6482 8.55943 16.3399 8.43087 16.1126 8.20203C15.8853 7.97318 15.7576 7.6628 15.7576 7.33917C15.7576 7.01553 15.8853 6.70515 16.1126 6.47631C16.3399 6.24747 16.6482 6.1189 16.9697 6.1189C17.2912 6.1189 17.5995 6.24747 17.8268 6.47631C18.0541 6.70515 18.1818 7.01553 18.1818 7.33917C18.1818 7.6628 18.0541 7.97318 17.8268 8.20203C17.5995 8.43087 17.2912 8.55943 16.9697 8.55943ZM9.69697 8.55943H2.42424V2.45811H9.69697M19.1152 5.1793L19.1273 5.1671L14.6182 0.627711L13.3333 1.92119L15.8909 4.49595C14.7515 4.89864 13.9394 6.03348 13.9394 7.33917C13.9394 7.73979 14.0178 8.13648 14.1701 8.50661C14.3223 8.87673 14.5456 9.21303 14.8269 9.49631C15.3952 10.0684 16.166 10.3898 16.9697 10.3898C17.4061 10.3898 17.8061 10.2922 18.1818 10.1336V18.9317C18.1818 19.2553 18.0541 19.5657 17.8268 19.7945C17.5995 20.0234 17.2912 20.152 16.9697 20.152C16.6482 20.152 16.3399 20.0234 16.1126 19.7945C15.8853 19.5657 15.7576 19.2553 15.7576 18.9317V13.4405C15.7576 12.7932 15.5022 12.1725 15.0475 11.7148C14.5929 11.2571 13.9763 11 13.3333 11H12.1212V2.45811C12.1212 1.81084 11.8658 1.19008 11.4112 0.732393C10.9565 0.274705 10.3399 0.0175781 9.69697 0.0175781H2.42424C1.07879 0.0175781 0 1.10361 0 2.45811V21.9823H12.1212V12.8304H13.9394V18.9317C13.9394 19.7408 14.2587 20.5167 14.8269 21.0888C15.3952 21.6609 16.166 21.9823 16.9697 21.9823C17.3676 21.9823 17.7617 21.9034 18.1293 21.7501C18.497 21.5968 18.8311 21.3721 19.1124 21.0888C19.3938 20.8056 19.617 20.4692 19.7693 20.0991C19.9216 19.729 20 19.3323 20 18.9317V7.33917C20 6.49719 19.6606 5.72842 19.1152 5.1793Z" fill="#CED2DF"/>
</svg>
